<svg version="1.0" xmlns="http://www.w3.org/2000/svg"
 width="512.000000pt" height="512.000000pt" viewBox="0 0 512.000000 512.000000"
 preserveAspectRatio="xMidYMid meet">

<g transform="translate(0.000000,512.000000) scale(0.100000,-0.100000)"
fill="#ffffff" stroke="none">
<path d="M318 4431 c-157 -50 -277 -187 -308 -350 -6 -32 -10 -269 -10 -600 0
-600 3 -637 59 -734 70 -122 200 -209 341 -227 101 -13 4219 -13 4320 0 141
18 271 105 341 227 56 97 59 134 59 734 0 331 -4 568 -10 600 -31 165 -152
301 -311 350 -59 18 -129 19 -2242 18 -2088 0 -2184 -1 -2239 -18z m4479 -159
c66 -35 110 -79 140 -140 l28 -57 3 -452 3 -453 -795 0 -795 0 -20 -26 c-12
-15 -21 -33 -21 -40 0 -29 25 -64 53 -74 20 -6 289 -10 803 -10 l774 0 0 -45
0 -45 -1499 0 -1498 0 -27 -21 c-33 -26 -36 -79 -6 -109 20 -20 33 -20 1492
-20 l1472 0 -27 -28 c-15 -16 -49 -40 -75 -53 l-47 -24 -2195 0 -2195 0 -47
24 c-26 13 -60 37 -75 53 l-27 28 750 0 c741 0 750 0 772 20 32 30 30 82 -4
109 -26 21 -33 21 -805 21 l-779 0 0 45 0 45 1485 0 c1285 0 1490 2 1514 15
46 23 54 66 20 109 l-20 26 -1500 0 -1499 0 0 425 c0 267 4 443 11 475 20 94
111 192 203 219 18 6 920 9 2211 8 l2180 -2 42 -23z"/>
<path d="M2292 4007 c-31 -33 -29 -80 4 -106 25 -20 39 -21 273 -21 263 1 271
2 290 51 11 30 -8 83 -34 93 -9 3 -128 6 -264 6 -246 0 -248 0 -269 -23z"/>
<path d="M4305 3518 c-61 -33 -74 -108 -27 -157 41 -45 99 -46 143 -2 79 79
-19 213 -116 159z"/>
<path d="M4698 3514 c-35 -19 -48 -43 -48 -91 0 -88 107 -127 171 -64 82 83
-20 212 -123 155z"/>
<path d="M1482 2270 c-21 -20 -22 -29 -22 -180 0 -113 -3 -160 -11 -160 -7 0
-66 35 -133 77 -135 85 -174 95 -207 54 -23 -28 -24 -59 -4 -88 8 -12 74 -58
145 -103 72 -45 128 -86 125 -90 -3 -5 -62 -43 -130 -85 -69 -43 -132 -87
-140 -98 -22 -32 -18 -65 11 -94 35 -35 59 -28 204 62 67 41 126 75 131 75 5
0 9 -69 9 -160 0 -147 2 -162 20 -180 25 -25 71 -26 101 -1 23 19 24 25 27
180 2 89 6 161 8 161 3 0 48 -27 100 -60 111 -70 167 -100 187 -100 31 0 67
41 67 75 0 41 -20 59 -170 150 -61 37 -113 71 -115 75 -3 5 51 43 119 85 69
42 134 86 145 96 39 37 19 110 -34 123 -30 8 -35 5 -181 -85 -61 -38 -114 -69
-117 -69 -4 0 -7 62 -7 139 0 76 -5 152 -11 170 -19 53 -77 68 -117 31z"/>
<path d="M3130 2257 c-49 -16 -123 -93 -138 -143 -27 -92 -8 -169 59 -236 93
-93 223 -93 319 0 107 104 90 266 -37 355 -32 23 -54 30 -104 33 -35 2 -80 -2
-99 -9z m135 -162 c50 -49 15 -135 -55 -135 -41 0 -80 39 -80 80 0 41 39 80
80 80 19 0 40 -9 55 -25z"/>
<path d="M4323 2055 c-17 -7 -33 -20 -37 -30 -3 -9 -6 -86 -6 -172 0 -120 -3
-154 -12 -150 -7 3 -65 37 -128 76 -63 40 -126 75 -139 78 -53 13 -107 -50
-84 -99 6 -13 68 -59 147 -108 75 -47 136 -87 136 -91 0 -3 -56 -41 -125 -83
-166 -103 -189 -133 -144 -190 35 -44 68 -36 213 54 70 44 130 80 132 80 2 0
4 -70 4 -156 0 -90 4 -164 11 -175 23 -44 104 -44 126 -1 4 10 10 88 13 174
l5 157 50 -31 c220 -138 245 -148 285 -108 28 28 27 83 -3 107 -13 10 -78 52
-145 93 -67 41 -122 77 -122 80 1 3 53 37 117 75 157 94 173 109 173 151 0 42
-29 74 -67 74 -17 0 -78 -31 -158 -80 l-130 -81 -5 160 c-4 135 -8 162 -23
179 -25 27 -48 32 -84 17z"/>
<path d="M439 1916 c-167 -45 -224 -258 -103 -380 114 -113 300 -84 370 59 23
48 26 64 22 118 -9 104 -65 173 -165 203 -55 17 -64 17 -124 0z m91 -146 c19
0 50 -45 50 -74 0 -71 -96 -105 -139 -50 -12 15 -21 36 -21 48 0 43 54 92 88
80 8 -2 18 -4 22 -4z"/>
<path d="M2549 1321 c-21 -17 -24 -30 -27 -100 l-4 -80 -57 36 c-67 44 -114
48 -142 14 -40 -49 -19 -91 71 -147 33 -20 60 -38 60 -40 0 -1 -29 -21 -65
-43 -91 -57 -108 -99 -60 -146 33 -34 61 -31 125 10 30 19 58 35 63 35 4 0 7
-31 7 -69 0 -84 22 -121 74 -121 55 0 76 33 76 118 0 40 4 72 8 72 4 0 30 -14
56 -30 66 -42 95 -47 129 -20 20 16 27 30 27 55 0 37 -27 65 -107 111 l-44 27
63 39 c76 48 88 62 88 104 0 23 -8 39 -26 53 -36 29 -49 27 -124 -18 l-65 -39
-3 78 c-3 72 -5 81 -29 100 -32 25 -64 26 -94 1z"/>
</g>
</svg>
