<svg version="1.0" xmlns="http://www.w3.org/2000/svg"
 width="512.000000pt" height="512.000000pt" viewBox="0 0 512.000000 512.000000"
 preserveAspectRatio="xMidYMid meet">

<g transform="translate(0.000000,512.000000) scale(0.100000,-0.100000)"
fill="#ffffff" stroke="none">
<path d="M2295 5114 c-532 -40 -879 -107 -1241 -240 -150 -56 -208 -92 -249
-158 l-30 -49 -3 -1624 -2 -1624 21 -48 c11 -27 35 -63 53 -80 30 -29 178
-101 240 -117 l25 -6 3 -201 c3 -185 5 -205 25 -242 27 -51 78 -100 124 -119
43 -18 240 -68 362 -92 l87 -17 0 -151 c0 -144 1 -155 26 -204 31 -62 81 -106
147 -128 37 -12 78 -15 185 -12 150 4 177 12 240 72 63 58 76 97 80 234 l4
122 168 0 168 0 4 -122 c4 -137 17 -176 80 -234 63 -60 90 -68 240 -72 107 -3
148 0 185 12 66 22 116 66 147 128 25 49 26 60 26 204 l0 151 88 17 c121 24
318 74 361 92 46 19 97 68 124 119 20 37 22 57 25 240 l3 201 67 23 c145 51
206 93 245 166 l22 40 0 1635 0 1635 -28 48 c-37 63 -87 98 -210 146 -286 111
-653 195 -1037 236 -136 15 -662 28 -775 19z m753 -189 c170 -17 348 -45 510
-80 244 -53 578 -167 607 -208 13 -19 15 -211 15 -1605 0 -1124 -3 -1589 -11
-1604 -29 -54 -429 -184 -749 -242 -736 -134 -1579 -86 -2210 125 -157 52
-246 93 -259 118 -8 14 -11 493 -11 1604 0 1495 1 1586 17 1606 36 41 340 146
591 202 231 52 426 78 767 103 107 8 597 -4 733 -19z m-1678 -3839 c30 -9 118
-29 195 -45 311 -66 535 -91 885 -98 392 -8 712 17 1038 83 124 25 304 68 336
80 14 5 16 -10 16 -144 0 -186 -2 -189 -122 -220 -212 -55 -454 -99 -683 -124
-161 -18 -789 -18 -950 0 -190 21 -416 60 -597 103 -218 53 -208 41 -208 241
0 138 1 149 18 144 9 -3 42 -12 72 -20z m718 -637 l132 -13 0 -104 c0 -101 -1
-104 -29 -133 -29 -28 -32 -29 -136 -29 -110 0 -156 12 -169 45 -3 9 -6 71 -6
137 l0 121 38 -6 c20 -4 97 -12 170 -18z m1152 -98 c0 -66 -3 -127 -6 -136
-13 -33 -59 -45 -169 -45 -104 0 -107 1 -136 29 -28 29 -29 32 -29 133 l0 104
148 16 c81 8 157 16 170 16 22 2 22 0 22 -117z"/>
<path d="M2435 4596 c-325 -63 -555 -341 -555 -670 0 -115 20 -198 72 -306 77
-161 260 -310 433 -353 252 -63 492 6 671 195 274 289 240 745 -74 997 -150
121 -360 173 -547 137z m228 -171 c184 -39 339 -184 389 -364 48 -173 2 -351
-124 -487 -268 -286 -755 -164 -860 215 -63 228 44 476 253 586 115 60 221 76
342 50z"/>
<path d="M2335 4155 c-18 -17 -25 -35 -25 -62 0 -34 9 -46 109 -146 108 -108
110 -110 148 -104 47 8 73 38 73 85 0 32 -11 47 -108 144 -93 93 -113 108
-140 108 -22 0 -41 -9 -57 -25z"/>
<path d="M1411 2640 c-46 -11 -82 -39 -108 -86 -22 -38 -23 -47 -23 -331 0
-183 4 -302 11 -320 15 -40 48 -73 94 -94 38 -18 93 -19 1175 -19 1082 0 1137
1 1175 19 46 21 79 54 94 94 7 18 11 136 11 316 0 278 -1 288 -22 331 -27 52
-60 78 -114 90 -48 12 -2245 11 -2293 0z m2259 -425 l0 -255 -1110 0 -1110 0
0 255 0 255 1110 0 1110 0 0 -255z"/>
<path d="M1650 2280 c-27 -27 -34 -64 -18 -96 21 -46 51 -55 170 -52 97 3 109
5 132 27 35 33 35 83 1 116 -23 24 -30 25 -145 25 -106 0 -122 -2 -140 -20z"/>
<path d="M2168 2286 c-48 -36 -41 -114 13 -141 39 -21 1229 -22 1269 -2 52 26
62 95 20 137 -20 20 -36 20 -652 20 -504 -1 -637 -3 -650 -14z"/>
</g>
</svg>
