<svg version="1.0" xmlns="http://www.w3.org/2000/svg"
 width="512.000000pt" height="512.000000pt" viewBox="0 0 512.000000 512.000000"
 preserveAspectRatio="xMidYMid meet">

<g transform="translate(0.000000,512.000000) scale(0.100000,-0.100000)"
fill="#ffffff" stroke="none">
<path d="M2575 5026 c-41 -18 -83 -69 -90 -109 -3 -18 -5 -334 -3 -704 3 -660
3 -672 24 -699 49 -66 58 -69 265 -72 l189 -3 0 80 0 81 -160 0 -160 0 0 640
0 640 1120 0 1120 0 0 -640 0 -640 -480 0 -480 0 0 -80 0 -81 509 3 c497 3
510 4 537 24 15 11 37 33 48 48 21 27 21 36 21 726 0 690 0 699 -21 726 -11
15 -33 37 -48 48 -27 21 -33 21 -1194 23 -955 2 -1173 0 -1197 -11z"/>
<path d="M3437 4642 c-26 -26 -47 -52 -47 -57 0 -6 142 -152 315 -325 l315
-315 57 58 58 57 -315 315 c-173 173 -320 315 -325 315 -6 0 -32 -22 -58 -48z"/>
<path d="M3997 4642 c-26 -26 -47 -52 -47 -57 0 -6 88 -98 195 -205 l195 -195
57 58 58 57 -195 195 c-107 107 -200 195 -205 195 -6 0 -32 -22 -58 -48z"/>
<path d="M3117 4322 c-26 -26 -47 -52 -47 -58 0 -5 52 -61 115 -124 l115 -115
57 58 58 57 -115 115 c-63 63 -119 115 -125 115 -6 0 -32 -22 -58 -48z"/>
<path d="M3365 3911 c-92 -24 -173 -90 -215 -176 l-25 -50 -3 -362 -3 -362
-189 -3 c-172 -3 -191 -5 -216 -24 -66 -49 -69 -59 -72 -250 -5 -248 21 -369
109 -504 78 -120 201 -227 322 -279 l47 -20 0 -626 c0 -596 -1 -625 -18 -625
-32 0 -120 -50 -155 -89 -19 -21 -69 -97 -113 -169 l-79 -132 -545 0 -546 0
-53 242 c-30 134 -56 248 -58 254 -3 8 37 13 124 18 171 9 275 23 348 48 138
46 295 178 368 310 69 124 103 299 77 393 -15 54 -80 131 -130 154 -31 14
-118 17 -715 21 l-679 5 -152 820 c-103 555 -159 831 -172 855 -11 21 -36 44
-63 58 -39 20 -57 22 -197 22 -121 0 -161 -3 -188 -16 -45 -22 -82 -66 -90
-110 -5 -25 38 -274 150 -877 l156 -842 0 -677 0 -678 -155 0 -155 0 0 -80 0
-80 2440 0 2440 0 0 80 0 80 -98 0 -97 0 -79 132 c-44 72 -94 148 -113 169
-35 39 -123 89 -155 89 -17 0 -18 29 -18 625 l0 625 56 25 c119 53 236 155
313 275 88 135 114 256 109 504 -3 191 -6 202 -72 250 -27 21 -39 21 -617 24
l-589 2 0 80 0 80 -80 0 -80 0 0 -80 0 -80 -80 0 -81 0 3 349 c3 335 4 351 24
377 39 53 71 69 134 69 63 0 95 -16 134 -69 18 -23 22 -45 24 -137 l4 -109 80
0 80 0 -4 123 c-4 116 -6 125 -38 185 -37 70 -69 101 -142 138 -54 27 -159 40
-213 25z m-2875 -641 c0 -6 65 -361 145 -790 80 -429 145 -784 145 -790 0 -7
-42 -10 -122 -8 l-123 3 -141 765 c-77 421 -143 780 -147 798 l-6 32 124 0
c78 0 125 -4 125 -10z m4228 -647 c-4 -148 -9 -188 -26 -236 -65 -179 -191
-302 -372 -363 -51 -18 -93 -19 -560 -19 -502 0 -505 0 -572 23 -145 50 -264
155 -328 287 -49 102 -60 164 -60 342 l0 143 961 0 961 0 -4 -177z m-478
-1383 l0 -600 -480 0 -480 0 0 600 0 600 480 0 480 0 0 -600z m-1944 255 c21
-22 25 -33 22 -78 l-3 -52 -882 -3 -883 -2 0 80 0 80 860 0 861 0 25 -25z
m-53 -327 c-26 -46 -121 -139 -174 -170 -103 -60 -143 -67 -553 -93 -209 -14
-384 -25 -388 -25 -5 0 -8 -36 -8 -81 l0 -80 98 6 c53 3 114 8 135 10 20 3 37
4 37 2 0 -4 94 -426 105 -475 l5 -22 -475 0 -475 0 0 480 0 480 856 0 855 0
-18 -32z m2160 -702 c42 -18 74 -54 130 -148 l47 -78 -820 0 -819 0 47 78 c67
111 75 121 118 142 37 19 63 20 651 20 499 0 620 -3 646 -14z"/>
<path d="M1295 3106 c-72 -33 -95 -83 -95 -212 l0 -94 -80 0 -80 0 0 -80 0
-80 80 0 80 0 0 -95 c0 -58 5 -108 14 -128 17 -43 68 -85 110 -93 l34 -6 4
-108 c3 -117 12 -140 72 -184 26 -20 41 -21 246 -21 205 0 220 1 246 21 60 44
69 67 72 184 l4 108 34 6 c42 8 93 50 110 93 9 20 14 70 14 128 l0 95 80 0 80
0 0 80 0 80 -79 0 -79 0 -4 109 c-3 118 -12 141 -72 185 -26 20 -41 21 -394
23 -291 2 -373 0 -397 -11z m705 -386 l0 -240 -320 0 -320 0 0 240 0 240 320
0 320 0 0 -240z m-160 -480 l0 -80 -160 0 -160 0 0 80 0 80 160 0 160 0 0 -80z"/>
</g>
</svg>
