<svg width="426" height="430" viewBox="0 0 426 430" fill="none" xmlns="http://www.w3.org/2000/svg">
<path fill-rule="evenodd" clip-rule="evenodd" d="M105.5 0.886932C96.405 3.26693 89.297 9.67193 86.229 18.2499L84.531 22.9999L45.015 23.0319C15.53 23.0559 5.097 23.3729 3.913 24.2819C0.0729983 27.2309 0 28.3849 0 86.4799V143.091L2.455 145.545C4.88 147.971 5.126 148 23 148C40.874 148 41.12 147.971 43.545 145.545C47.159 141.931 46.899 136.935 42.923 133.589C40.006 131.134 39.254 131 28.423 131H17V85.4999V39.9999H50.5H84V85.4119V130.823L73.102 131.162C63.906 131.447 61.858 131.812 59.987 133.5C56.592 136.563 55.802 139.589 57.399 143.413C59.23 147.795 62.934 149 74.569 149H83.839L85.427 153.782C87.551 160.175 91.661 164.943 98.144 168.534C103.468 171.482 103.613 171.502 122.343 171.845C142.8 172.22 148.042 171.493 154.258 167.422C158.908 164.377 163.67 157.94 165.041 152.846L166.077 149L187.289 149.139C198.955 149.216 219.722 149.554 233.438 149.889L258.377 150.5L259.187 153.635C260.672 159.377 266.166 166.145 272 169.416L277.5 172.5H299.5C320.149 172.5 321.748 172.367 325.545 170.334C331.502 167.145 337.776 159.867 339.219 154.473L340.443 149.894L380.184 150.197L419.925 150.5L422.212 148.224L424.5 145.947L425.005 89.7239C425.283 58.8009 425.122 32.2489 424.647 30.7199C422.919 25.1569 421.684 24.9999 379.708 24.9999H341.317L340.073 20.8499C337.392 11.9009 329.353 4.02493 321.106 2.26793C319.123 1.84593 308.95 1.49993 298.5 1.49993C279.625 1.49993 279.462 1.51893 273.682 4.35693C267.281 7.49993 262.036 13.5999 260.058 20.2009L258.92 23.9999H212.979H167.038L166.377 21.2499C165.174 16.2439 162.199 11.4119 157.962 7.58493C150.822 1.13393 148.751 0.642929 127.5 0.356929C117.05 0.215929 107.15 0.454932 105.5 0.886932ZM145.795 19.6699C147.057 20.4589 148.572 22.3189 149.163 23.8019C149.912 25.6829 150.044 44.9149 149.601 87.3109C148.89 155.379 149.284 152.039 141.713 154.077C139.296 154.728 131.391 155.036 122.239 154.836L106.833 154.5L103.781 151.083L100.729 147.666L101.197 85.9139C101.715 17.4559 101.442 20.0809 108.255 18.1209C113.232 16.6899 142.99 17.9179 145.795 19.6699ZM321.25 22.1049L324 25.0319L323.994 84.7659C323.991 123.608 323.62 145.83 322.933 148.302C322.236 150.813 320.794 152.793 318.689 154.133C315.711 156.028 314.383 156.127 298.638 155.623C280.308 155.036 277.851 154.342 275.874 149.198C275.17 147.367 275.07 126.953 275.563 85.6559L276.288 24.8109L278.678 21.9709C279.993 20.4079 282.065 18.9619 283.284 18.7569C284.503 18.5519 292.925 18.5629 302 18.7809L318.5 19.1779L321.25 22.1049ZM258.256 41.7499C258.462 42.1619 258.44 62.6379 258.207 87.2499L257.783 132H212.391H167V86.4999V40.9999H212.441C237.434 40.9999 258.05 41.3379 258.256 41.7499ZM408 87.4999V133H374.5H341V87.4999V41.9999H374.5H408V87.4999ZM44.251 162.25C40.865 165.881 29.29 185.768 25.797 193.955C18.542 210.958 23.147 225.326 38.384 233.231C44.099 236.197 54.756 236.255 61.089 233.356C69.936 229.306 76.031 220.987 77.499 210.962C78.017 207.422 77.558 204.593 75.409 198.09C72.505 189.304 60.619 167.413 56.22 162.75C52.858 159.186 47.323 158.955 44.251 162.25ZM189.067 173.393C179.796 175.313 176.017 180.216 179.106 186.316C179.715 187.517 189.591 197.95 201.055 209.5L221.898 230.5L218.199 247.95L214.5 265.4L197 269.152L179.5 272.904L157.449 250.952C138.092 231.682 135.014 229 132.255 229C124.919 229 121.055 238.169 121.017 255.662C120.909 306.76 166.914 346.509 217 338.592L226.5 337.091L272.754 383.295L319.008 429.5H369.923H420.839L423.419 427.076C425.26 425.347 426 423.626 426 421.078C426 417.682 422.542 414.047 355.951 347.451L285.903 277.397L286.882 272.949C288.796 264.261 289.223 254.266 288.06 245.402C283.638 211.722 260.323 184.634 227.38 174.9C218.506 172.279 198.289 171.483 189.067 173.393ZM55.629 195.505C61.792 208.514 61.231 214.334 53.505 217.562C46.254 220.592 38.282 214.651 39.419 207.064C40.11 202.46 49.016 184.892 50.268 185.666C50.813 186.002 53.225 190.43 55.629 195.505ZM226.618 192.92C236.771 196.36 247.249 203.255 254.552 211.303C260.775 218.159 267.983 231.943 270.082 241C271.832 248.553 271.599 264.165 269.623 271.644C266.571 283.199 261.145 276.606 332.239 347.732L396.479 412H360.985H325.492L279 365.5C227.237 313.728 232.047 317.412 220.299 320.548C212.621 322.598 196.282 322.571 188.5 320.497C160.899 313.138 141.76 290.573 138.462 261.5L137.781 255.5L155.703 273.25C165.561 283.012 174.388 291 175.32 291C179.06 291 224.647 280.752 226.661 279.459C229.422 277.685 229.944 275.934 235.54 249.695C238.363 236.457 239.936 226.88 239.543 225.317C239.18 223.868 231.884 215.617 222.858 206.447C214.036 197.485 206.522 189.842 206.159 189.464C204.688 187.927 219.039 190.352 226.618 192.92Z" fill="white"/>
</svg>
