<svg width="333" height="77" viewBox="0 0 333 77" fill="none" xmlns="http://www.w3.org/2000/svg">
<path fill-rule="evenodd" clip-rule="evenodd" d="M97.3981 58.1605C96.4074 57.9032 95.6862 57.5887 95.2343 57.2167C94.7842 56.8413 94.5591 56.3799 94.5591 55.8324C94.5591 55.2119 94.8337 54.6992 95.3829 54.2943C95.9373 53.8876 96.6551 53.6842 97.5363 53.6842C98.1376 53.6842 98.6729 53.7885 99.1422 53.9971C99.6149 54.2056 99.9799 54.4941 100.237 54.8626C100.498 55.2311 100.628 55.6334 100.628 56.0696H99.4681C99.4681 55.5934 99.2995 55.2198 98.9623 54.9486C98.6251 54.6758 98.1498 54.5394 97.5363 54.5394C96.968 54.5394 96.523 54.6523 96.2015 54.8783C95.8852 55.1025 95.727 55.4153 95.727 55.8168C95.727 56.1366 95.8774 56.4086 96.178 56.6328C96.4822 56.8535 96.9975 57.056 97.724 57.2402C98.4522 57.4244 99.0214 57.6278 99.4316 57.8502C99.8435 58.071 100.148 58.329 100.344 58.6245C100.546 58.92 100.646 59.2684 100.646 59.6699C100.646 60.3078 100.369 60.8196 99.8148 61.2054C99.2621 61.5895 98.5226 61.7816 97.5962 61.7816C96.9949 61.7816 96.4335 61.6782 95.9121 61.4713C95.3907 61.2628 94.9884 60.9778 94.7051 60.6163C94.4235 60.2565 94.2827 59.8472 94.2827 59.3884H95.4429C95.4429 59.8646 95.6375 60.2417 96.0268 60.5198C96.4196 60.7944 96.9428 60.9317 97.5962 60.9317C98.2063 60.9317 98.6738 60.8196 98.9988 60.5954C99.3238 60.3712 99.4863 60.0662 99.4863 59.6803C99.4863 59.2945 99.336 58.9964 99.0353 58.7861C98.7346 58.5741 98.1889 58.3655 97.3981 58.1605ZM107.797 61.6721L106.961 59.6152H103.293L102.469 61.6721H101.277L104.622 53.7911H105.631L108.981 61.6721H107.797ZM105.128 55.0738L103.642 58.7601H106.619L105.128 55.0738ZM116.891 53.7911V61.6721H115.731L111.322 55.5978V61.6721H110.162V53.7911H111.322L115.741 59.8915V53.7911H116.891ZM120.181 53.7911V61.6721H119.026V53.7911H120.181ZM128.168 53.7911V54.6462H125.353V61.6721H124.206V54.6462H121.396V53.7911H128.168ZM134.665 61.6721L133.828 59.6152H130.16L129.336 61.6721H128.145L131.49 53.7911H132.499L135.849 61.6721H134.665ZM131.996 55.0738L130.51 58.7601H133.487L131.996 55.0738ZM138.268 53.7911V61.6721H137.113V53.7911H138.268ZM145.492 61.6721L143.591 58.4837H141.535V61.6721H140.374V53.7911H143.271C144.258 53.7911 145.016 53.9928 145.544 54.396C146.078 54.8009 146.344 55.3892 146.344 56.1609C146.344 56.6527 146.197 57.0803 145.901 57.4435C145.608 57.8085 145.198 58.0814 144.673 58.2621L146.73 61.6069V61.6721H145.492ZM141.535 54.6462V57.6338H143.31C143.882 57.6338 144.336 57.5 144.673 57.2324C145.014 56.9665 145.184 56.6093 145.184 56.1609C145.184 55.6742 145.022 55.3006 144.697 55.0399C144.377 54.7809 143.912 54.6497 143.302 54.6462H141.535ZM152.914 57.1802V58.0275H149.118V60.8222H153.527V61.6721H147.963V53.7911H153.467V54.6462H149.118V57.1802H152.914ZM160.156 57.9154V58.7314H157.221V57.9154H160.156ZM169.742 59.172H170.902C170.795 60.0045 170.452 60.6484 169.875 61.1038C169.302 61.5539 168.538 61.779 167.584 61.779C166.55 61.779 165.72 61.4453 165.094 60.7779C164.472 60.1105 164.161 59.2172 164.161 58.0979V57.3419C164.161 56.6084 164.305 55.9645 164.593 55.4101C164.887 54.8539 165.3 54.4281 165.832 54.1326C166.365 53.832 166.983 53.6816 167.685 53.6816C168.615 53.6816 169.361 53.9163 169.922 54.3855C170.484 54.8513 170.81 55.497 170.902 56.3225H169.742C169.641 55.6951 169.422 55.2406 169.085 54.9591C168.753 54.6775 168.287 54.5367 167.685 54.5367C166.948 54.5367 166.369 54.7827 165.946 55.2745C165.529 55.7646 165.321 56.4624 165.321 57.3679V58.1318C165.321 58.9869 165.52 59.6673 165.918 60.1731C166.314 60.6771 166.869 60.9291 167.584 60.9291C168.225 60.9291 168.716 60.7996 169.057 60.5406C169.401 60.2765 169.629 59.8202 169.742 59.172ZM179.208 53.7911V61.6721H178.048V58.0275H173.632V61.6721H172.48V53.7911H173.632V57.1802H178.048V53.7911H179.208ZM187.037 61.6721L186.203 59.6152H182.532L181.708 61.6721H180.52L183.862 53.7911H184.873L188.223 61.6721H187.037ZM184.365 55.0738L182.882 58.7601H185.856L184.365 55.0738ZM194.3 53.7911H195.463V59.1485C195.458 59.8924 195.197 60.5007 194.681 60.9734C194.166 61.4462 193.469 61.7112 192.587 61.7686L192.28 61.779C191.322 61.779 190.558 61.5461 189.988 61.0803C189.42 60.6145 189.131 59.9741 189.123 59.1589V53.7911H190.265V59.1277C190.265 59.6977 190.439 60.1418 190.789 60.4598C191.138 60.7727 191.635 60.9291 192.28 60.9291C192.933 60.9291 193.433 60.7727 193.779 60.4598C194.126 60.1453 194.3 59.7029 194.3 59.1329V53.7911ZM202.113 57.3419V58.1917H198.437V61.6721H197.285V53.7911H202.708V54.6462H198.437V57.3419H202.113ZM208.923 57.3419V58.1917H205.247V61.6721H204.092V53.7911H209.517V54.6462H205.247V57.3419H208.923ZM215.55 61.6721L214.716 59.6152H211.048L210.224 61.6721H209.032L212.374 53.7911H213.386L216.736 61.6721H215.55ZM212.88 55.0738L211.394 58.7601H214.371L212.88 55.0738ZM224.312 57.746V60.6371C224.015 61.0195 223.6 61.3062 223.068 61.4974C222.538 61.6851 221.92 61.779 221.215 61.779C220.5 61.779 219.867 61.6295 219.314 61.3306C218.762 61.0264 218.332 60.5971 218.026 60.0427C217.726 59.4866 217.572 58.8418 217.565 58.1083V57.4227C217.565 56.2356 217.872 55.3153 218.485 54.6619C219.102 54.0084 219.968 53.6816 221.082 53.6816C221.996 53.6816 222.732 53.8928 223.29 54.3151C223.848 54.734 224.189 55.3293 224.312 56.1009H223.157C222.942 55.0581 222.252 54.5367 221.09 54.5367C220.315 54.5367 219.727 54.7827 219.327 55.2745C218.929 55.7611 218.729 56.4677 218.725 57.394V58.0405C218.725 58.9234 218.949 59.6265 219.398 60.1496C219.848 60.6693 220.455 60.9291 221.22 60.9291C221.653 60.9291 222.032 60.8856 222.357 60.7987C222.682 60.7136 222.95 60.5676 223.162 60.3608V58.5906H221.137V57.746H224.312ZM231.187 57.1776V58.0275H227.391V60.8222H231.799V61.6721H226.236V53.7911H231.739V54.6462H227.391V57.1776H231.187ZM238.429 57.9154V58.7314H235.493V57.9154H238.429ZM248.015 59.1694H249.175C249.067 60.0036 248.725 60.6484 248.148 61.1038C247.574 61.5539 246.81 61.779 245.856 61.779C244.822 61.779 243.992 61.4453 243.366 60.7779C242.744 60.1105 242.433 59.2172 242.433 58.0979V57.3419C242.433 56.6084 242.577 55.9636 242.866 55.4075C243.16 54.8531 243.573 54.4281 244.107 54.1326C244.639 53.832 245.256 53.6816 245.958 53.6816C246.888 53.6816 247.633 53.9163 248.195 54.3855C248.756 54.8513 249.083 55.497 249.175 56.3225H248.015C247.914 55.6951 247.696 55.2406 247.36 54.9591C247.027 54.6775 246.559 54.5367 245.958 54.5367C245.221 54.5367 244.641 54.7827 244.219 55.2745C243.802 55.7646 243.593 56.4624 243.593 57.3679V58.1318C243.593 58.9869 243.792 59.6673 244.19 60.1731C244.587 60.6771 245.142 60.9291 245.856 60.9291C246.497 60.9291 246.988 60.7996 247.329 60.5406C247.673 60.2765 247.902 59.8194 248.015 59.1694ZM251.912 53.7911V60.8222H256.06V61.6721H250.752V53.7911H251.912ZM258.617 53.7911V61.6721H257.462V53.7911H258.617ZM260.726 53.7911H262.22L265.083 60.22L267.945 53.7911H269.442V61.6721H268.287V58.601L268.396 55.2902L265.521 61.6721H264.637L261.769 55.3058L261.881 58.601V61.6721H260.726V53.7911ZM277.26 61.6695L276.423 59.6152H272.755L271.931 61.6695H270.74L274.085 53.7911H275.096L278.444 61.6695H277.26ZM274.59 55.0738L273.104 58.7601H276.082L274.59 55.0738ZM284.899 53.7885V54.6436H282.086V61.6695H280.936V54.6436H278.128V53.7885H284.899ZM287.435 53.7885V61.6695H286.28V53.7885H287.435ZM292.128 58.1579C291.137 57.9024 290.415 57.5887 289.961 57.2167C289.513 56.8413 289.289 56.379 289.289 55.8298C289.289 55.2094 289.563 54.6975 290.113 54.2943C290.665 53.8859 291.383 53.6816 292.266 53.6816C292.867 53.6816 293.403 53.7859 293.872 53.9945C294.345 54.2048 294.709 54.4941 294.964 54.8626C295.225 55.2293 295.355 55.6317 295.355 56.0696H294.195C294.195 55.5917 294.027 55.218 293.689 54.9486C293.354 54.674 292.879 54.5367 292.266 54.5367C291.696 54.5367 291.251 54.6506 290.931 54.8783C290.613 55.1007 290.454 55.4127 290.454 55.8142C290.454 56.1357 290.604 56.4077 290.905 56.6301C291.211 56.8509 291.726 57.0534 292.451 57.2376C293.181 57.4218 293.75 57.626 294.159 57.8502C294.572 58.0692 294.877 58.3264 295.074 58.6219C295.274 58.9191 295.373 59.2676 295.373 59.6673C295.373 60.3069 295.097 60.8196 294.544 61.2054C293.992 61.5878 293.252 61.779 292.326 61.779C291.725 61.779 291.163 61.6764 290.642 61.4713C290.12 61.261 289.717 60.9752 289.432 60.6137C289.152 60.2539 289.012 59.8446 289.012 59.3857H290.172C290.172 59.862 290.367 60.2391 290.756 60.5172C291.149 60.7918 291.672 60.9291 292.326 60.9291C292.934 60.9291 293.401 60.817 293.726 60.5928C294.051 60.3686 294.213 60.0636 294.213 59.6777C294.213 59.2919 294.063 58.9947 293.762 58.7861C293.462 58.5724 292.917 58.3629 292.128 58.1579ZM302.524 61.6695L301.688 59.6126H298.02L297.196 61.6695H296.007L299.349 53.7885H300.361L303.711 61.6695H302.524ZM299.852 55.0738L298.369 58.7575H301.343L299.852 55.0738ZM310.16 53.7911V54.6462H307.347V61.6721H306.198V54.6462H303.39V53.7911H310.16ZM312.697 53.7911V61.6721H311.542V53.7911H312.697ZM321.545 57.4879V57.9858C321.545 58.7592 321.401 59.4344 321.112 60.0114C320.824 60.585 320.415 61.023 319.884 61.3254C319.356 61.6295 318.739 61.7816 318.033 61.7816C317.343 61.7816 316.732 61.6295 316.198 61.3254C315.665 61.0195 315.249 60.585 314.952 60.0219C314.66 59.4553 314.51 58.8 314.501 58.0562V57.4879C314.501 56.7301 314.648 56.061 314.942 55.4805C315.234 54.9 315.646 54.4559 316.18 54.1483C316.717 53.8389 317.33 53.6842 318.02 53.6842C318.723 53.6842 319.34 53.8372 319.871 54.1431C320.41 54.4472 320.824 54.8895 321.112 55.47C321.401 56.047 321.545 56.7197 321.545 57.4879ZM320.395 58.0614V57.4774C320.395 56.5424 320.187 55.8263 319.77 55.3293C319.353 54.827 318.77 54.5758 318.02 54.5758C317.29 54.5758 316.715 54.827 316.295 55.3293C315.877 55.8263 315.663 56.5189 315.651 57.4071V57.9858C315.651 58.8913 315.861 59.6039 316.282 60.1235C316.707 60.6397 317.291 60.8978 318.033 60.8978C318.779 60.8978 319.356 60.6545 319.765 60.1678C320.173 59.6777 320.383 58.9756 320.395 58.0614ZM330.005 53.7911V61.6721H328.845L324.436 55.6004V61.6721H323.276V53.7911H324.436L328.858 59.8915V53.7911H330.005Z" fill="#838383"/>
<path fill-rule="evenodd" clip-rule="evenodd" d="M110.933 35.2735C110.933 34.2446 110.53 33.4582 109.724 32.9142C108.919 32.3598 107.469 31.7802 105.373 31.1753C103.278 30.5583 101.62 29.9535 100.399 29.3608C97.0686 27.7428 95.4036 25.5616 95.4036 22.8173C95.4036 21.3904 95.8468 20.1217 96.7332 19.0111C97.6317 17.8866 98.9135 17.0098 100.579 16.3806C102.257 15.7532 104.138 15.4395 106.22 15.4395C108.314 15.4395 110.181 15.7836 111.82 16.4719C113.459 17.148 114.728 18.1091 115.626 19.3552C116.54 20.5996 116.997 22.0135 116.997 23.5968H110.954C110.954 22.3889 110.531 21.4521 109.685 20.7864C108.838 20.1104 107.65 19.7723 106.118 19.7723C104.641 19.7723 103.493 20.0565 102.675 20.6248C101.856 21.1792 101.447 21.9161 101.447 22.8355C101.447 23.6941 101.923 24.4128 102.875 24.9915C103.843 25.572 105.261 26.116 107.127 26.6235C110.565 27.5551 113.069 28.71 114.641 30.0882C116.212 31.4647 116.997 33.181 116.997 35.237C116.997 37.5208 116.037 39.3152 114.117 40.6205C112.196 41.9135 109.611 42.5601 106.361 42.5601C104.105 42.5601 102.051 42.1916 100.198 41.4547C98.3434 40.7056 96.9261 39.6846 95.9459 38.3915C94.9795 37.0984 94.4964 35.5994 94.4964 33.8944H100.56C100.56 36.8073 102.494 38.2637 106.361 38.2637C107.798 38.2637 108.919 38.0039 109.724 37.4843C110.53 36.9524 110.933 36.2155 110.933 35.2735ZM139.214 42.1977H133.333C133.065 41.7267 132.871 41.1401 132.749 40.438C131.339 41.8527 129.507 42.5601 127.251 42.5601C125.115 42.5601 123.342 42.0039 121.932 40.8916C120.535 39.781 119.836 38.3793 119.836 36.6865C119.836 34.6079 120.69 33.0124 122.396 31.9001C124.115 30.7878 126.593 30.2255 129.829 30.2133H132.506V29.0897C132.506 28.1842 132.245 27.4595 131.722 26.9155C131.211 26.3715 130.398 26.0995 129.284 26.0995C128.304 26.0995 127.532 26.3107 126.969 26.733C126.418 27.1553 126.143 27.7358 126.143 28.4745H120.321C120.321 27.3378 120.711 26.2863 121.489 25.32C122.268 24.352 123.369 23.5959 124.792 23.0519C126.216 22.4975 127.814 22.2203 129.587 22.2203C132.272 22.2203 134.4 22.8303 135.971 24.0504C137.556 25.2583 138.349 26.9624 138.349 29.1627V37.6641C138.363 39.5255 138.651 40.9342 139.214 41.8901V42.1977ZM128.52 38.5531C129.379 38.5531 130.171 38.3837 130.895 38.0448C131.622 37.6954 132.159 37.2305 132.506 36.65V33.2766H130.332C127.418 33.2766 125.866 34.1829 125.679 35.9957L125.658 36.3059C125.658 36.9576 125.913 37.4956 126.424 37.9196C126.935 38.342 127.634 38.5531 128.52 38.5531ZM142.7 22.5801H148.18L148.36 24.8481C149.919 23.0945 152.008 22.2177 154.627 22.2177C156.937 22.2177 158.655 22.8286 159.783 24.0504C160.911 25.2705 161.488 27.0954 161.514 29.5251V42.1977H155.693V29.6502C155.693 28.5397 155.425 27.7367 154.887 27.2414C154.35 26.7339 153.457 26.4801 152.207 26.4801C150.57 26.4801 149.342 27.1084 148.521 28.365V42.1977H142.7V22.5801ZM172.07 22.5801V42.1951H166.228V22.5801H172.07ZM165.886 17.5042C165.886 16.7187 166.175 16.0721 166.752 15.5646C167.343 15.0554 168.142 14.8008 169.15 14.8008C170.144 14.8008 170.937 15.0554 171.528 15.5646C172.119 16.0721 172.414 16.7187 172.414 17.5042C172.414 18.302 172.112 18.9546 171.507 19.4621C170.916 19.9696 170.131 20.2233 169.15 20.2233C168.17 20.2233 167.378 19.9696 166.773 19.4621C166.182 18.9546 165.886 18.302 165.886 17.5042Z" fill="#232323"/>
<path fill-rule="evenodd" clip-rule="evenodd" d="M186.351 42.1976H178.335V15.8017H186.534C188.937 15.8017 191.092 16.297 192.999 17.2877C194.906 18.2662 196.39 19.674 197.452 21.511C198.526 23.3481 199.063 25.4389 199.063 27.7835V30.2132C199.063 32.5699 198.533 34.6607 197.473 36.4856C196.411 38.3123 194.913 39.7209 192.978 40.7116C191.059 41.7022 188.85 42.1976 186.351 42.1976ZM186.573 17.7048H180.811V40.3127H186.372C189.461 40.3127 191.938 39.3942 193.805 37.5571C195.671 35.7079 196.605 33.2121 196.605 30.0698V27.7496C196.605 24.715 195.685 22.2853 193.846 20.4604C192.006 18.6355 189.581 17.717 186.573 17.7048ZM213.224 42.5599C211.371 42.5599 209.693 42.1489 208.187 41.3268C206.698 40.5047 205.536 39.3629 204.702 37.9012C203.869 36.4257 203.453 34.7754 203.453 32.9505V32.1711C203.453 30.2853 203.856 28.5873 204.663 27.077C205.481 25.5667 206.616 24.3822 208.068 23.5236C209.517 22.6546 211.088 22.2201 212.781 22.2201C215.426 22.2201 217.521 23.0353 219.066 24.6655C220.624 26.2853 221.402 28.503 221.402 31.3186V32.5334H205.852V32.9505C205.852 35.1752 206.556 37.0305 207.966 38.5165C209.389 39.992 211.176 40.7298 213.326 40.7298C214.614 40.7298 215.748 40.5178 216.728 40.0937C217.722 39.6714 218.622 38.9944 219.429 38.0629L220.938 39.0978C219.166 41.4059 216.594 42.5599 213.224 42.5599ZM212.781 24.0685C210.968 24.0685 209.437 24.6664 208.187 25.8621C206.952 27.0596 206.2 28.6673 205.932 30.6851H219.006V30.4504C218.939 28.5647 218.341 27.0292 217.213 25.8439C216.085 24.6603 214.608 24.0685 212.781 24.0685ZM211.613 19.428L215.461 14.3496H218.381L213.727 19.428H211.613ZM243.622 32.2805V32.5882C243.622 35.6471 242.87 38.0768 241.367 39.8773C239.862 41.6657 237.847 42.5599 235.324 42.5599C232.341 42.5599 230.058 41.6171 228.472 39.7313V49.7396H226.077V22.5825H228.313L228.433 25.3564C230.005 23.2655 232.28 22.2201 235.261 22.2201C237.866 22.2201 239.908 23.1083 241.385 24.8845C242.876 26.6607 243.622 29.1261 243.622 32.2805ZM241.205 32.2075C241.205 29.7066 240.634 27.7305 239.492 26.2792C238.35 24.8298 236.759 24.105 234.719 24.105C233.242 24.105 231.972 24.4248 230.91 25.0644C229.85 25.7057 229.037 26.6364 228.472 27.8565V37.2651C229.051 38.3896 229.878 39.2482 230.952 39.8408C232.026 40.4335 233.295 40.7298 234.758 40.7298C236.786 40.7298 238.364 40.0042 239.492 38.553C240.634 37.0913 241.205 34.9762 241.205 32.2075ZM265.296 42.1976H262.718C262.476 41.5806 262.322 40.6681 262.254 39.4602C261.409 40.4509 260.328 41.2182 259.011 41.7622C257.709 42.294 256.327 42.5599 254.863 42.5599C252.767 42.5599 251.068 42.0342 249.766 40.9827C248.477 39.9312 247.832 38.6017 247.832 36.994C247.832 35.0839 248.711 33.5736 250.47 32.463C252.243 31.3507 254.708 30.7945 257.864 30.7945H262.236V28.563C262.236 27.1621 261.752 26.0629 260.784 25.2651C259.831 24.4552 258.435 24.0502 256.594 24.0502C254.915 24.0502 253.526 24.437 252.426 25.2104C251.324 25.9838 250.773 26.9145 250.773 28.0025L248.356 27.9842C248.356 26.4252 249.162 25.0774 250.773 23.9408C252.384 22.7937 254.365 22.2201 256.717 22.2201C259.146 22.2201 261.06 22.7693 262.457 23.8678C263.867 24.9557 264.592 26.4791 264.632 28.4378V37.7187C264.632 39.6166 264.853 41.0375 265.296 41.9812V42.1976ZM255.145 40.636C256.756 40.636 258.192 40.2858 259.454 39.5853C260.73 38.8849 261.657 37.9482 262.236 36.775V32.4604H257.924C255.52 32.4848 253.64 32.8836 252.285 33.657C250.927 34.4183 250.249 35.4698 250.249 36.8115C250.249 37.9117 250.699 38.8241 251.599 39.5489C252.512 40.2736 253.693 40.636 255.145 40.636ZM271.058 22.5799H273.355L273.435 25.9351C274.254 24.7255 275.274 23.8069 276.496 23.1795C277.718 22.5382 279.067 22.2175 280.545 22.2175C282.882 22.2175 284.622 22.8102 285.764 23.9955C286.904 25.1791 287.481 26.9553 287.495 29.3242V42.1976H285.099V29.306C285.085 27.5541 284.669 26.2488 283.85 25.3902C283.044 24.5317 281.747 24.1024 279.961 24.1024C278.471 24.1024 277.149 24.5256 275.993 25.372C274.851 26.2062 274.005 27.3368 273.456 28.7637V42.1976H271.058V22.5799ZM293.72 22.5799H296.017L296.098 25.9325C296.917 24.7246 297.937 23.8061 299.159 23.1769C300.38 22.5356 301.73 22.2149 303.207 22.2149C305.545 22.2149 307.284 22.8076 308.424 23.9929C309.566 25.1765 310.144 26.9536 310.158 29.3242V42.195H307.759V29.306C307.747 27.5523 307.331 26.2462 306.51 25.3876C305.706 24.5308 304.41 24.1024 302.623 24.1024C301.132 24.1024 299.81 24.5247 298.655 25.3694C297.514 26.2036 296.667 27.3342 296.116 28.7611V42.195H293.72V22.5799ZM324.822 42.5573C322.969 42.5573 321.29 42.1471 319.785 41.3268C318.296 40.5047 317.135 39.362 316.302 37.8986C315.47 36.4248 315.053 34.7754 315.053 32.9505V32.1711C315.053 30.2853 315.456 28.5873 316.261 27.077C317.079 25.5649 318.214 24.3805 319.665 23.5236C321.115 22.6529 322.686 22.2175 324.379 22.2175C327.024 22.2175 329.119 23.0335 330.664 24.6655C332.221 26.2853 333 28.503 333 31.3186V32.5334H317.449V32.9505C317.449 35.1734 318.154 37.0287 319.564 38.5165C320.987 39.9903 322.774 40.7272 324.924 40.7272C326.211 40.7272 327.346 40.516 328.328 40.0937C329.321 39.6696 330.22 38.9927 331.027 38.0629L332.536 39.0952C330.763 41.4033 328.192 42.5573 324.822 42.5573ZM324.379 24.0659C322.566 24.0659 321.035 24.6646 319.785 25.8621C318.549 27.0579 317.798 28.6646 317.53 30.6824H330.604V30.4478C330.536 28.5621 329.939 27.0274 328.811 25.8439C327.683 24.6586 326.205 24.0659 324.379 24.0659Z" fill="#59595A"/>
<path d="M28.5036 8.72559L24.1955 11.7413L23.4507 15.217L15.8714 23.7748L15.2215 36.9766H37.5434V32.1866L28.5036 8.72559Z" fill="white"/>
<path d="M48.3721 39.4841V11.7778L54.6444 10.646L64.5823 16.7723L73.695 28.9372L72.0743 39.4841H48.3721Z" fill="white"/>
<path d="M45.2834 67.3524V50.1127L52.7021 46.3668L70.1171 49.5797L73.1766 64.5996L67.6491 72.9676L45.2834 67.3524Z" fill="white"/>
<path d="M18.6972 75.8884V49.5797L28.9053 49.0174L36.1414 51.6753L31.0812 76.1074H20.7709L18.6972 75.8884Z" fill="white"/>
<path fill-rule="evenodd" clip-rule="evenodd" d="M75.4636 28.7258V39.4844H68.0639C68.1004 39.4712 68.134 39.4537 68.1778 39.4303C68.6159 39.2025 67.2869 38.0795 67.2869 38.0795C67.2869 38.0795 65.4147 38.1832 65.3023 38.3672C65.2044 38.5264 65.4381 39.2975 65.8572 39.4844H55.1804C55.5689 39.2449 55.7792 38.5454 55.6842 38.392C55.5718 38.208 53.701 38.1043 53.701 38.1043C53.701 38.1043 52.3721 39.2259 52.8102 39.4552C52.8307 39.4669 52.8496 39.4756 52.8672 39.4844H45.2776V0.0498047C45.2776 0.0498047 54.7803 6.70037 64.6305 13.5963C64.648 13.6089 64.6656 13.6211 64.6831 13.6328V7.16476H73.3066V19.67C80.4961 24.7024 86.2426 28.7258 86.2426 28.7258H75.4636ZM54.2166 37.7056H66.8225C67.7747 37.7056 71.1321 31.9605 71.1321 31.0069L49.9318 31.0317C49.9318 31.9853 53.2644 37.7056 54.2166 37.7056ZM72.093 29.7904H53.1257V16.5871C53.1257 15.0625 54.3611 13.827 55.8858 13.827H57.0234C58.548 13.827 59.7835 15.0625 59.7835 16.5871V17.5261C58.9219 17.6327 58.2633 18.1804 58.2355 18.8492H57.9259C57.7507 18.8492 57.6076 18.9909 57.6076 19.1661C57.6076 19.3429 57.7507 19.4845 57.9259 19.4845H62.2808C62.4575 19.4845 62.5991 19.3429 62.5991 19.1661C62.5991 18.9909 62.4575 18.8492 62.2808 18.8492H61.9493C61.9215 18.1965 61.295 17.6576 60.4641 17.532C60.4641 16.9405 60.4641 16.5871 60.4641 16.5871C60.4641 14.6813 58.919 13.1377 57.0132 13.1377H55.8931C53.9873 13.1377 52.4422 14.6813 52.4422 16.5871V29.7904H48.9095C48.6467 29.7904 48.432 30.0036 48.432 30.2665C48.432 30.5308 48.6467 30.744 48.9095 30.744H72.093C72.3574 30.744 72.5706 30.5308 72.5706 30.2665C72.5706 30.0036 72.3574 29.7904 72.093 29.7904ZM61.8441 22.2402C61.7565 22.2402 61.6864 22.3089 61.6864 22.3965V23.1822C61.6864 23.2698 61.7565 23.3384 61.8441 23.3384C61.9303 23.3384 62.0004 23.2698 62.0004 23.1822V22.3965C62.0004 22.3089 61.9303 22.2402 61.8441 22.2402ZM62.0004 20.9084V20.1212C62.0004 20.0351 61.9303 19.965 61.8441 19.965C61.7565 19.965 61.6864 20.0351 61.6864 20.1212V20.9084C61.6864 20.9945 61.7565 21.0646 61.8441 21.0646C61.9303 21.0646 62.0004 20.9945 62.0004 20.9084ZM61.8441 24.5579C61.7565 24.5579 61.6864 24.628 61.6864 24.7141V25.5013C61.6864 25.5874 61.7565 25.6575 61.8441 25.6575C61.9303 25.6575 62.0004 25.5874 62.0004 25.5013V24.7141C62.0004 24.628 61.9303 24.5579 61.8441 24.5579ZM60.1179 22.2402C60.0318 22.2402 59.9617 22.3089 59.9617 22.3965V23.1822C59.9617 23.2698 60.0318 23.3384 60.1179 23.3384C60.2056 23.3384 60.2742 23.2698 60.2742 23.1822V22.3965C60.2742 22.3089 60.2056 22.2402 60.1179 22.2402ZM60.2742 20.9084V20.1212C60.2742 20.0351 60.2056 19.965 60.1179 19.965C60.0318 19.965 59.9617 20.0351 59.9617 20.1212V20.9084C59.9617 20.9945 60.0318 21.0646 60.1179 21.0646C60.2056 21.0646 60.2742 20.9945 60.2742 20.9084ZM60.1179 24.5579C60.0318 24.5579 59.9617 24.628 59.9617 24.7141V25.5013C59.9617 25.5874 60.0318 25.6575 60.1179 25.6575C60.2056 25.6575 60.2742 25.5874 60.2742 25.5013V24.7141C60.2742 24.628 60.2056 24.5579 60.1179 24.5579ZM58.3932 22.2402C58.3071 22.2402 58.237 22.3089 58.237 22.3965V23.1822C58.237 23.2698 58.3071 23.3384 58.3932 23.3384C58.4794 23.3384 58.5495 23.2698 58.5495 23.1822V22.3965C58.5495 22.3089 58.4794 22.2402 58.3932 22.2402ZM58.5495 20.9084V20.1212C58.5495 20.0351 58.4794 19.965 58.3932 19.965C58.3071 19.965 58.237 20.0351 58.237 20.1212V20.9084C58.237 20.9945 58.3071 21.0646 58.3932 21.0646C58.4794 21.0646 58.5495 20.9945 58.5495 20.9084ZM58.3932 24.5579C58.3071 24.5579 58.237 24.628 58.237 24.7141V25.5013C58.237 25.5874 58.3071 25.6575 58.3932 25.6575C58.4794 25.6575 58.5495 25.5874 58.5495 25.5013V24.7141C58.5495 24.628 58.4794 24.5579 58.3932 24.5579Z" fill="#F05125"/>
<path fill-rule="evenodd" clip-rule="evenodd" d="M45.2776 76.1092V62.5393H49.6237V63.6083C49.6237 63.6419 49.65 63.6682 49.6835 63.6682H52.1983C52.2319 63.6682 52.2597 63.6419 52.2597 63.6083V62.1626H56.2114C56.21 62.164 56.2363 62.1626 56.2377 62.1626C56.2377 62.1626 56.2991 62.1553 56.3516 62.167C56.3838 62.1743 56.4334 62.2122 56.4758 62.237C56.5079 62.2526 56.5386 62.2701 56.5678 62.2896C56.5824 62.2984 56.5975 62.3071 56.613 62.3159C56.6169 62.3179 56.6203 62.3198 56.6233 62.3217C56.9402 62.5101 57.2907 62.7482 57.7215 63.0914C57.9902 63.2374 58.2939 63.3426 58.6546 63.3455C60.1851 63.3572 61.5491 61.7858 62.7934 61.7858C64.0361 61.7858 65.0453 62.6284 65.0453 63.6682H65.0599V63.9851C65.0599 64.0172 65.0861 64.045 65.1197 64.045H68.7648C68.797 64.045 68.8247 64.0172 68.8247 63.9851V63.198C68.8247 63.1877 68.8218 63.1775 68.8174 63.1688C68.8218 63.0855 68.8247 63.0008 68.8247 62.9147C68.8247 60.4685 67.0328 58.389 64.6875 58.0268L64.6831 58.0209H62.0471L60.9182 57.2674V55.385H61.092C61.4031 55.385 61.6557 55.1323 61.6557 54.8212C61.6557 54.5087 61.4031 54.2561 61.092 54.2561H60.9182V54.1057C60.9182 53.7727 60.6481 53.5025 60.3166 53.5025H59.4126V52.2232C59.4126 52.0918 59.3702 51.9706 59.2987 51.8727C59.6448 51.7296 59.9193 51.4755 60.061 51.1615C60.8072 51.3397 61.7214 51.4551 61.958 51.4551C62.3728 51.4551 62.7101 51.1104 62.7101 50.6869C62.7101 50.2634 62.3728 49.9188 61.958 49.9188C61.7214 49.9188 60.8058 50.0254 60.0595 50.1948C59.839 49.707 59.2958 49.3624 58.659 49.3624C58.0208 49.3624 57.4747 49.7099 57.2571 50.2006C56.505 50.0283 55.5703 49.9188 55.3308 49.9188C54.9146 49.9188 54.5787 50.2634 54.5787 50.6869C54.5787 51.1104 54.9146 51.4551 55.3308 51.4551C55.5703 51.4551 56.5035 51.3368 57.2556 51.1557C57.3958 51.4711 57.6704 51.7282 58.0194 51.8727C57.9493 51.9706 57.9069 52.0918 57.9069 52.2232V53.5025H57.003C56.67 53.5025 56.3998 53.7727 56.3998 54.1057V54.2561H56.2114C55.9004 54.2561 55.6477 54.5087 55.6477 54.8212C55.6477 55.1323 55.9004 55.385 56.2114 55.385H56.3998V57.2674L55.271 58.0209H52.2597V56.5752C52.2597 56.5416 52.2319 56.5153 52.1983 56.5153H49.6835C49.65 56.5153 49.6237 56.5416 49.6237 56.5752V57.6442H45.2776V43.7969L75.4636 43.7896V76.1092H45.2776ZM66.9408 65.1899C66.9408 65.942 65.4352 67.7456 65.4352 68.578C65.4352 69.409 66.1099 70.0837 66.9408 70.0837C67.7732 70.0837 68.4465 69.409 68.4465 68.578C68.4465 67.7456 66.9408 65.942 66.9408 65.1899Z" fill="#3181BE"/>
<path fill-rule="evenodd" clip-rule="evenodd" d="M26.725 76.1033C26.9163 76.1033 27.0696 75.9485 27.0696 75.7586V66.088C27.0696 65.8981 26.9163 65.7433 26.725 65.7433H25.8633C25.672 65.7433 25.5172 65.8981 25.5172 66.088V75.7586C25.5172 75.9485 25.672 76.1033 25.8633 76.1033H26.725ZM30.1846 76.1091V62.586C32.1298 61.3403 33.4193 59.1629 33.4193 56.6832C33.4193 54.202 32.1298 52.0246 30.1846 50.7789V55.6258L26.3044 57.7828L22.6388 55.6258V50.7789C20.6951 52.0246 19.4041 54.202 19.4041 56.6832C19.4041 59.1629 20.6951 61.3403 22.6388 62.586V76.1091H10.7805V43.7676H40.9651V76.1091" fill="#78BB43"/>
<path fill-rule="evenodd" clip-rule="evenodd" d="M10.7805 39.455H40.9665V0L27.5982 9.35664V21.7465C27.5982 22.0006 27.4434 22.2065 27.2536 22.2065H25.3565C25.1652 22.2065 25.0104 22.0006 25.0104 21.7465V11.1675L0 28.6745H10.7805V39.455ZM17.6808 34.1524C17.6808 34.3422 17.8356 34.497 18.0254 34.497H18.6519H33.9567H34.5847C34.7745 34.497 34.9293 34.3422 34.9293 34.1524V33.117C34.9293 32.9257 34.7745 32.7723 34.5847 32.7723H34.0546C33.8574 29.1959 31.2419 26.2634 27.8144 25.5887V23.4142C27.8144 23.2244 27.6596 23.0696 27.4697 23.0696H25.1404C24.9506 23.0696 24.7958 23.2244 24.7958 23.4142V25.5887C21.3682 26.2634 18.7512 29.1959 18.5556 32.7723H18.0254C17.8356 32.7723 17.6808 32.9257 17.6808 33.117V34.1524ZM22.6388 27.8129C23.2346 27.8129 23.6742 28.3299 23.6216 28.9388C23.572 29.5201 23.093 29.9699 22.5482 29.9699C22.0035 29.9699 21.561 29.5201 21.561 28.9388C21.561 28.3299 22.0444 27.8129 22.6388 27.8129Z" fill="#FBBD15"/>
</svg>
